
<svg xmlns="http://www.w3.org/2000/svg" viewBox="0 0 16 16" role="presentation" class="icon-base_root-F1flk icon-base_m-F1flk" width="24" height="24" data-icon="notification"><path d="M5.848 14.142c-.14-.014-.253.116-.202.248l.02.05a2.525 2.525 0 0 0 4.688-.05c.052-.132-.06-.262-.201-.248-.63.062-1.348.103-2.153.103s-1.523-.04-2.152-.103M13.51 8.586c-.551-.47-1.078-.917-.909-1.771.284-2.43-1.252-4.642-3.109-5.382l-.031-.111a2.3 2.3 0 0 0-.343-.695 1.65 1.65 0 0 0-.513-.464A1.23 1.23 0 0 0 8 0c-.208 0-.413.055-.605.163a1.65 1.65 0 0 0-.513.464 2.3 2.3 0 0 0-.374.807c-1.856.74-3.393 2.95-3.108 5.381.168.853-.364 1.305-.917 1.776-.524.445-1.066.906-1.055 1.738 0 1.165.657 1.797 1.622 2.11 0 0 1.767.683 4.95.683s4.95-.683 4.95-.683c.966-.313 1.623-.977 1.623-2.11 0-.84-.543-1.3-1.063-1.743"></path></svg>
